<svg xmlns="http://www.w3.org/2000/svg" viewBox="-464.7 568.6 224 211.3"><style>.st0{fill:none;stroke:#DFE0E3;stroke-width:0.3;stroke-miterlimit:10;} .st1{fill:#D3EAFE;stroke:#1889FF;stroke-width:0.5;} .st2{fill:#454545;} .st3{font-family:"Roboto", sans-serif; font-weight: 500;} .st4{font-size:5.2771px;} .st5{enable-background:new ;} .st6{fill:#FFFFFF;} .st7{fill:#767676;} .st8{font-family:"Roboto", sans-serif; font-weight: 400;} .st9{font-size:9.6308px;} .st10{fill:#737373;} .st11{font-family:"Roboto", sans-serif; font-weight: 300; font-style: italic;} .st12{font-size:5px;} .st13{fill:none;stroke:#5A5B5D;stroke-width:0.5;stroke-miterlimit:10;}</style><path class="st0" d="M-383 751.5v-183m27 183v-183m27 183v-183m27.2 183v-183m27 183v-183"/><path class="st1" d="M-406 708.4h29.4v4.7H-406zm0-9.6h29.5v4.7H-406zm0-19.6h57.3v4.7H-406zm0-9.5h57.3v4.7H-406zm0 48.3h29.2v4.7H-406zm0 19h27.3v4.8H-406zm0-9.5h28.2v4.7H-406zm0-67.5h57.4v4.8H-406zm0-67.3h132.8v4.7H-406zm0 58h57.4v4.6H-406zm0-67.5h132.8v4.7H-406zm0 19h108.6v4.8H-406zm0 38.8h57.4v4.7H-406zm0-29.2h107.5v4.7H-406zm0 9.6h68v4.7h-68z"/><text transform="translate(-424.643 587.3)" class="st2 st3 st4">Music</text><text transform="translate(-427.77 596.86)" class="st2 st3 st4">Speech</text><text transform="translate(-427.722 606.422)" class="st2 st3 st4">Vehicle</text><text transform="translate(-455.963 615.983)" class="st2 st3 st4">Musical Instrument</text><text transform="translate(-453.672 625.543)" class="st2 st3 st4">Inside, small room</text><text transform="translate(-424.187 645.136)" class="st2 st3 st4">Boom</text><text transform="translate(-428.485 702.97)" class="st2 st3 st4">Splinter</text><text transform="translate(-427.382 712.53)" class="st2 st3 st4">Pulleys</text><text transform="translate(-424.022 722.09)" class="st2 st3 st4">Creak</text><text transform="translate(-430.173 731.65)" class="st2 st3 st4">Gargling</text><text transform="translate(-437.565 741.213)" class="st2 st3 st4">Toothbrush</text><text transform="translate(-431.52 654.674)" class="st2 st3 st4">Fusillade</text><text transform="translate(-440.31 664.212)" class="st2 st3 st4">Swing music</text><text transform="translate(-457.424 673.75)" class="st2 st3 st4">Crumpling, crinkling</text><text transform="translate(-440.343 683.29)" class="st2 st3 st4">Lawn mower</text><g class="st5"><path class="st6" d="M-271.2 582h27v7h-27z"/><text transform="translate(-269.16 587.3)" class="st7 st8 st4">1,011,949</text><text transform="translate(-269.16 587.3)" class="st7 st8 st4">1,011,949</text></g><g class="st5"><path class="st6" d="M-295.4 601h22.7v7.2h-22.7z"/><text transform="translate(-293.44 606.422)" class="st7 st8 st4">128,110</text></g><g class="st5"><path class="st6" d="M-296.5 610.7h22.7v7h-22.7z"/><text transform="translate(-294.467 615.983)" class="st7 st8 st4">117,384</text></g><g class="st5"><path class="st6" d="M-336 620.2h20v7h-20z"/><text transform="translate(-334 625.543)" class="st7 st8 st4">76,767</text></g><g class="st5"><path class="st6" d="M-374.5 697.6h12.8v7h-12.8z"/><text transform="translate(-372.504 702.97)" class="st7 st8 st4">153</text></g><g class="st5"><path class="st6" d="M-374.6 707.2h12.8v7h-12.8z"/><text transform="translate(-372.58 712.53)" class="st7 st8 st4">152</text></g><g class="st5"><path class="st6" d="M-374.8 716.8h12.8v7h-12.8z"/><text transform="translate(-372.815 722.092)" class="st7 st8 st4">149</text></g><g class="st5"><path class="st6" d="M-375.8 726.3h12.8v7h-12.8z"/><text transform="translate(-373.802 731.653)" class="st7 st8 st4">137</text></g><g class="st5"><path class="st6" d="M-376.7 736h12.8v7h-12.5z"/><text transform="translate(-374.692 741.213)" class="st7 st8 st4">127</text></g><g class="st5"><path class="st6" d="M-346.6 649.4h17.2v7h-17.2z"/><text transform="translate(-344.567 654.696)" class="st7 st8 st4">1,650</text></g><g class="st5"><path class="st6" d="M-346.6 659h17.2v7h-17.2z"/><text transform="translate(-344.624 664.256)" class="st7 st8 st4">1,642</text></g><g class="st5"><path class="st6" d="M-346.7 668.5h17.2v7h-17.2z"/><text transform="translate(-344.667 673.818)" class="st7 st8 st4">1,636</text></g><g class="st5"><path class="st6" d="M-346.7 678h17.2v7h-17.2z"/><text transform="translate(-344.717 683.38)" class="st7 st8 st4">1,629</text></g><g class="st5"><path class="st6" d="M-271.2 591.5h27v7h-27z"/><text transform="translate(-269.17 596.86)" class="st7 st8 st4">1,011,065</text></g><text transform="translate(-374.824 775.254)" class="st2 st8 st9">Number of examples</text><text transform="translate(-461.647 577.53)" class="st2 st8 st9">Audio Class</text><path class="st6" d="M-401.2 630.2h49.4v7.6h-49.4v-7.6z"/><text transform="translate(-399.167 635.416)" class="st10 st11 st12">262 classes omitted ...</text><path class="st6" d="M-401.2 688h49.4v7.7h-49.4V688z"/><text transform="translate(-399.167 693.286)" class="st10 st11 st12">250 classes omitted ...</text><path class="st0" d="M-408.2 639h154m-154 9.4h154m-154 9.4h154m-154 9.4h154m-154 9.3h154m-154 9.4h154m-154 10.6h154m-154 9.4h154m-154 9.5h154m-154 9.4h154m-154 9.2h154m-154 9.4h154m-154-162.6h154m-154 9.4h154m-154 9.4h154m-154 9.3h154m-154 9.6h154m-154 9.4h154"/><path class="st13" d="M-254.3 749.3H-406v-54.7l1.4-1.4-3-1.4 4.4-1.5-2.8-1.4v-52.4l1.4-1.4-3-1.5 4.4-1.5-2.8-1.4v-62.5"/><path class="st6" d="M-389.4 754h13v7.8h-13v-8z"/><text transform="translate(-387.445 759.4)" class="st2 st8 st4">100</text><path class="st6" d="M-364.4 754h17v7.8h-17v-8z"/><text transform="translate(-362.382 759.4)" class="st2 st8 st4">1,000</text><path class="st6" d="M-338.8 754h20v7.8h-20v-8z"/><text transform="translate(-336.8 759.4)" class="st2 st8 st4">10,000</text><path class="st6" d="M-313.2 754h22.8v7.8h-22.8v-8z"/><text transform="translate(-311.22 759.4)" class="st2 st8 st4">100,000</text><path class="st6" d="M-288.2 754h26.8v7.8h-26.8v-8z"/><text transform="translate(-286.157 759.4)" class="st2 st8 st4">1,000,000</text><g class="st5"><path class="st6" d="M-346.6 639.8h17.2v7h-17.2z"/><text transform="translate(-344.56 645.136)" class="st7 st8 st4">1,651</text></g></svg>
